<svg xmlns="http://www.w3.org/2000/svg" viewBox="0 0 220 260">
  <defs>
    <filter id="paper" x="-20%" y="-20%" width="140%" height="140%">
      <feTurbulence type="fractalNoise" baseFrequency=".045" numOctaves="3" seed="11" result="n"/>
      <feDisplacementMap in="SourceGraphic" in2="n" scale="2.4" xChannelSelector="R" yChannelSelector="G"/>
    </filter>
    <filter id="chalk" x="-20%" y="-20%" width="140%" height="140%">
      <feTurbulence type="fractalNoise" baseFrequency=".11" numOctaves="2" seed="7" result="n"/>
      <feDisplacementMap in="SourceGraphic" in2="n" scale="1.4"/>
    </filter>
  </defs>
  <ellipse cx="112" cy="236" rx="60" ry="11" fill="#2f281f" opacity=".18"/>
  <g filter="url(#paper)">
    <path d="M62 55 83 22l18 22 25-24 13 35 33 15-12 30 17 31-22 22 4 44-34 11-17 31-29-24-37 4-4-35-25-25 20-28-9-37 34-19Z"
          fill="#5f493c" stroke="#c9aa82" stroke-width="8" stroke-linejoin="round"/>
    <path d="M64 65c23-19 75-22 100 2l-7 33 12 33-22 19 4 35-28 8-15 28-25-21-30 4-2-29-20-22 16-24-7-31 28-15Z"
          fill="#3f3937" opacity=".98"/>
    <path d="M69 76c22-13 59-14 82-1M55 115c33-15 77-16 110-1M55 158c34-12 76-12 109 0"
          fill="none" stroke="#554b48" stroke-width="7" opacity=".55"/>
    <path d="M45 108 15 128l29 15M165 108l34 15-31 20"
          fill="none" stroke="#3f3937" stroke-width="17" stroke-linecap="round" stroke-linejoin="round"/>
    <path d="M83 196 67 239M132 198l18 41"
          fill="none" stroke="#3f3937" stroke-width="20" stroke-linecap="round"/>
  </g>
  <g filter="url(#chalk)" fill="none" stroke="#efe0c9" stroke-linecap="round" stroke-linejoin="round">
    <path d="M68 96q17-17 33 1M121 96q17-18 33 0" stroke-width="8"/>
    <path d="M86 100l9 2M137 100l9-2" stroke-width="5"/>
    <path d="M84 137q25 22 51 0" stroke-width="8"/>
    <path d="m93 143 8 11 8-12 9 11 8-13" stroke-width="5"/>
    <path d="M53 173q18 13 33 14M140 185q16-3 27-14" stroke-width="4" opacity=".7"/>
  </g>
  <circle cx="94" cy="101" r="4" fill="#f3dfbf"/>
  <circle cx="143" cy="101" r="4" fill="#f3dfbf"/>
</svg>